# xmcd
#
# Track frame offsets:
#	150
#	19095
#	34925
#	49942
#	66450
#	82365
#	99550
#	118030
#	132915
#	148090
#
# Disc length: 2170 seconds
#
# Revision: 4
# Processed by: cddbd v1.5.2PL0 Copyright (c) Steve Scherf et al.
# Submitted via: EasyCDDAExtractor 15.3.0.1
#
DISCID=9808780a
DTITLE=Myriam Hernandez - Dos
DYEAR=1990
DGENRE=Latin
TTITLE0=Peligroso Amor
TTITLE1=Mio
TTITLE2=Que No
TTITLE3=Sabia
TTITLE4=Todo Lo Tuyo
TTITLE5=Te Pareces Tanto A El
TTITLE6=Herida
TTITLE7=Toda La Vida Fue Igual
TTITLE8=Tonto
TTITLE9=Ni Tonta Sigo Amandote
EXTD=
EXTT0=
EXTT1=
EXTT2=
EXTT3=
EXTT4=
EXTT5=
EXTT6=
EXTT7=
EXTT8=
EXTT9=
PLAYORDER=
